<?xml version="1.0" encoding="UTF-8" standalone="no"?>
<svg
   width="920.43402"
   height="135.744"
   viewBox="0 0 920.43402 135.744"
   version="1.1"
   id="svg32"
   xmlns="http://www.w3.org/2000/svg"
   xmlns:svg="http://www.w3.org/2000/svg">
  <defs
     id="defs36" />
  <g
     id="g1197"
     transform="rotate(-90,62.271001,69.601001)">
    <path
       fill="#78a3ad"
       d="M 0,71.05 V 23.54 c 0,-1.5 1.46,-2.69 2.96,-2.69 h 16.12 c 1.5,0 2.92,1.19 2.92,2.69 v 47.51 z"
       id="path2" />
    <path
       fill="#ffffff"
       d="m 4,35.17 h 5.06 v 6.32 H 4 Z m 8.85,0 h 5.06 v 6.32 H 12.85 Z M 4,26.23 h 5.06 v 6.32 H 4 Z m 8.85,22.8 h 5.06 v 6.32 H 12.85 Z M 110,41.49 h 5.06 v 6.32 H 110 Z m 8.85,0 h 5.06 v 6.32 h -5.06 z m 0,16.49 h 5.06 v 6.32 h -5.06 z M 110,50.97 h 5.06 v 6.32 H 110 Z"
       id="path4" />
    <path
       fill="#78a3ad"
       d="M 73.33,127.88 V 11.33 c 0,-2.23 2.16,-4 4.39,-4 h 23.94 c 2.23,0 4.34,1.77 4.34,4 V 127.87 H 73.33 Z m 38.75,0 V 35.33 c 0,-2.23 2.16,-4 4.39,-4 H 128 v 96.54 h -15.92 z"
       id="path6" />
    <path
       fill="#ffffff"
       d="m 78,17.33 h 5.33 V 24 H 78 Z m 9.33,0 h 5.33 V 24 h -5.33 z m -9.33,10 h 5.33 V 34 H 78 Z m 18.67,0 H 102 V 34 h -5.33 z m 0,14 H 102 V 48 h -5.33 z m 0,10 H 102 V 58 h -5.33 z"
       id="path8" />
    <path
       fill="#78a3ad"
       d="M 28.17,127.98 V 19.82 c 0,-2.46 2.36,-4.42 4.78,-4.42 h 26.07 c 2.43,0 4.72,1.96 4.72,4.42 V 127.99 H 28.17 Z"
       id="path10" />
    <path
       fill="#ffffff"
       d="m 43.42,20.58 h 5.81 v 7.36 h -5.81 z m 10.16,0 h 5.81 v 7.36 H 53.58 Z M 33.25,31.63 h 5.81 v 7.36 h -5.81 z m 20.33,0 h 5.81 v 7.36 H 53.58 Z M 33.25,53.68 h 5.81 v 7.36 h -5.81 z m 10.17,-11 h 5.81 v 7.36 h -5.81 z m 10.16,22.05 h 5.81 v 7.36 h -5.81 z"
       id="path12" />
    <path
       fill="#78a3ad"
       d="M 51.74,18.34 H 41.63 a 4.02,4.02 0 0 1 -4.02,-4.02 v -0.8 c 0,-2.22 1.8,-4.02 4.02,-4.02 h 10.11 c 2.22,0 4.02,1.8 4.02,4.02 v 0.8 c 0,2.22 -1.8,4.02 -4.02,4.02 M 63.31,46 H 76 V 60 H 63.31 Z"
       id="path14" />
    <path
       fill="#006ca2"
       d="M 49,127.98 V 61.54 c 0,-1.91 1.86,-3.43 3.77,-3.43 h 21.5 c 1.91,0 3.72,1.52 3.72,3.43 v 66.44 z"
       id="path16" />
    <path
       fill="#ffffff"
       d="m 54,63.11 h 7 v 9 h -7 z m 12,0 h 7 v 9 h -7 z m 0,13 h 7 v 9 h -7 z m -12,13 h 7 v 9 h -7 z m 12,0 h 7 v 9 h -7 z m -12,13 h 7 v 9 h -7 z"
       id="path18" />
    <path
       fill="#006ca2"
       d="M 96,127.98 H 75 V 90.1 H 91.99 A 4.01,4.01 0 0 1 96,94.11 Z"
       id="path20" />
    <path
       fill="#006ca2"
       d="M 88,127.98 V 45.1 c 0,-2.68 2.61,-4.82 5.29,-4.82 l 29.49,-0.18 c 2.68,0 5.22,2.13 5.22,4.82 v 83.06 z"
       id="path22" />
    <path
       fill="#ffffff"
       d="m 106,52.1 h 6 v 7 h -6 z m -11,0 h 6 v 7 h -6 z m 22,11 h 6 v 7 h -6 z m -11,0 h 6 v 7 h -6 z m 0,11 h 6 v 7 h -6 z m -11,0 h 6 v 7 h -6 z m 22,11 h 6 v 7 h -6 z m -11,0 h 6 v 7 h -6 z m -11,0 h 6 v 7 h -6 z m 11,22 h 6 v 7 h -6 z m -11,-11 h 6 v 7 h -6 z"
       id="path24" />
    <path
       fill="#006ca2"
       d="M 27.11,47.5 H 14.28 c -1.67,0 -3.02,-0.74 -3.02,-2.41 v -3.62 c 0,-1.67 1.35,-3.02 3.02,-3.02 h 12.83 c 1.67,0 3.02,1.35 3.02,3.02 v 3.62 c 0,1.67 -1.35,2.41 -3.02,2.41"
       id="path26" />
    <path
       fill="#006ca2"
       d="M 0,127.96 V 50 C 0,47.32 2.61,45.18 5.29,45.18 L 34.78,45 c 2.68,0 5.22,2.13 5.22,4.82 v 78.14 z"
       id="path28" />
    <path
       fill="#ffffff"
       d="m 18,52.75 h 6 v 7 h -6 z m 11,-0.16 h 6 v 7 h -6 z m -22.08,11 h 6 v 7 h -6 z M 18,63.75 h 6 v 7 h -6 z m 0,11 h 6 v 7 h -6 z m 11,11 h 6 v 7 h -6 z m -22,0 h 6 v 7 H 7 Z m 22,22 h 6 v 7 h -6 z m -11,0 h 6 v 7 h -6 z m -11,-11 h 6 v 7 H 7 Z"
       id="path30" />
  </g>
  <text
     xml:space="preserve"
     style="font-style:normal;font-weight:normal;font-size:40px;line-height:1.25;font-family:sans-serif;fill:#000000;fill-opacity:1;stroke:none"
     x="134.0016"
     y="134.592"
     id="text1307"><tspan
       id="tspan1305"
       x="134.0016"
       y="134.592"
       style="font-style:normal;font-variant:normal;font-weight:normal;font-stretch:normal;font-size:192px;font-family:Sasha;-inkscape-font-specification:'Sasha, Normal';font-variant-ligatures:normal;font-variant-caps:normal;font-variant-numeric:normal;font-variant-east-asian:normal;fill:#ffffff;fill-opacity:1">COLONY</tspan></text>
</svg>
